<?xml version="1.0" encoding="UTF-8"?>
<svg version="1.1" xmlns="http://www.w3.org/2000/svg" width="96" height="96">
<path d="M0 0 C3.63 0 7.26 0 11 0 C11 1.32 11 2.64 11 4 C12.65 4 14.3 4 16 4 C16 5.65 16 7.3 16 9 C17.65 9 19.3 9 21 9 C21 10.65 21 12.3 21 14 C22.65 14.33 24.3 14.66 26 15 C26 15.99 26 16.98 26 18 C27.98 18.495 27.98 18.495 30 19 C30 25.93 30 32.86 30 40 C28.68 40.33 27.36 40.66 26 41 C25.67 42.32 25.34 43.64 25 45 C22.03 45 19.06 45 16 45 C16 46.32 16 47.64 16 49 C11.38 49 6.76 49 2 49 C2 50.65 2 52.3 2 54 C-2.95 54 -7.9 54 -13 54 C-13 55.65 -13 57.3 -13 59 C-12.01080566 58.98952637 -11.02161133 58.97905273 -10.00244141 58.96826172 C-6.33857836 58.93210981 -2.67473114 58.89013672 C2.57619883 58.88006812 4.16312125 58.86641233 5.75 58.84912109 10.30714006 58.81352578 12.5859375 58.8046875 C13.29744965 58.79436493 20 59 C22 61 22 61 22.125 63.0234375 C22.04194274 64.5859522 21.95861125 66.14845235 21.875 67.7109375 C22.01499863 24 74 C22.02 74 20.04 74 18 74 C17.67 73.34 17.34 72.68 17 72 C16.67 72.66 16 74 C11.38 74 6.76 74 2 74 C2 70.37 2 66.74 2 63 C1.01 63 0.02 63 -1 63 C-1 66.63 -1 70.26 -1 74 C-2.65 74 -4.3 74 -6 74 C-6 70.37 -6 66.74 -6 63 C-7.98 63.495 -7.98 63.495 -10 64 C-10 66.97 -10 69.94 -10 73 C-12.475 73.495 -12.475 73.495 -15 74 C-15 63.62648437 -17.82859375" fill="#732602" transform="translate(57,11)"/>
<path d="M0 0 C3.3 0 6.6 0 10 0 C10 1.65 10 3.3 10 5 C11.65 5 13.3 5 15 5 C15 6.65 15 8.3 15 10 C16.32 10 17.64 10 19 10 C19.495 11.98 19.495 11.98 20 14 C21.32 14.33 22.64 14.66 24 15 C24 20.94 24 26.88 24 33 C21.03 33 18.06 33 15 33 C15 31.68 15 30.36 15 29 C16.65 29 18.3 29 20 29 C20 26.03 20 23.06 20 20 C18.35 20 16.7 20 15 20 C15 21.32 15 22.64 15 24 C10.38 24 5.76 24 1 24 C1 25.65 1 27.3 1 29 C-3.95 29 -8.9 29 -14 29 C-14 30.65 -14 32.3 -14 34 C-18.62 34 -23.24 34 -28 34 C-28 32.35 -28 30.7 -28 29 C-29.65 29 -31.3 29 -33 29 C-33 31.97 -33 34.94 -33 38 C-34.32 38 -35.64 38 -37 38 C-37 36.68 -37 35.36 -37 34 C-38.65 34 -40.3 34 -42 34 C-42 27.73 -42 21.46 -42 15 C-37.38 15 -32.76 15 -28 15 C-28 13.35 -28 11.7 -28 10 C-23.38 10 -18.76 10 -14 10 C-14 8.35 -14 6.7 -14 5 C-9.38 5 -4.76 5 0 5 C0 3.35 0 1.7 0 0 Z " fill="#FCF35F" transform="translate(57,16)"/>
<path d="M0 0 C3.63 0 7.26 0 11 0 C11 1.32 11 2.64 11 4 C12.65 4 14.3 4 16 4 C16 5.65 16 7.3 16 9 C17.65 9 19.3 9 21 9 C21 10.65 21 12.3 21 14 C22.65 14.33 24.3 14.66 26 15 C25.67 22.92 25.34 30.84 25 39 C21.7 39 18.4 39 15 39 C15 40.65 15 42.3 15 44 C10.05 44 5.1 44 0 44 C0 45.32 0 46.64 0 48 C-4.62 48 -9.24 48 -14 48 C-14 49.65 -14 51.3 -14 53 C-20.27 53 -26.54 53 -33 53 C-33 51.68 -33 50.36 -33 49 C-34.65 49 -36.3 49 -38 49 C-38 47.35 -38 45.7 -38 44 C-39.65 44 -41.3 44 -43 44 C-43.16728213 39.88850113 -43.32787468 35.77680194 -43.48217773 31.66479492 C-43.53566026 30.26498319 -43.59099434 28.86524096 -43.64819336 27.46557617 C-43.72992949 25.4577104 -43.80453025 23.44955813 -43.87890625 21.44140625 C-43.9260376 20.23170166 -43.97316895 19.02199707 -44.02172852 17.77563477 C-44 15 -44 15 -43 14 C-40.64686445 13.92728259 -38.29166332 13.91629132 -35.9375 13.9375 C-34.64714844 13.94652344 -33.35679688 13.95554687 -32.02734375 13.96484375 C-31.02832031 13.97644531 -30.02929688 13.98804688 -29 14 C-29 12.35 -29 10.7 -29 9 C-24.38 9 -19.76 9 -15 9 C-15 7.35 -15 5.7 -15 4 C-10.05 4 -5.1 4 0 4 C0 2.68 0 1.36 0 0 Z M0 5 C0 6.65 0 8.3 0 10 C-4.62 10 -9.24 10 -14 10 C-14 11.65 -14 13.3 -14 15 C-18.62 15 -23.24 15 -28 15 C-28 16.65 -28 18.3 -28 20 C-32.62 20 -37.24 20 -42 20 C-42 26.27 -42 32.54 -42 39 C-40.35 39 -38.7 39 -37 39 C-37 40.32 -37 41.64 -37 43 C-35.68 43 -34.36 43 -33 43 C-33 40.03 -33 37.06 -33 34 C-31.35 34 -29.7 34 -28 34 C-28 35.65 -28 37.3 -28 39 C-23.38 39 -18.76 39 -14 39 C-14 37.35 -14 35.7 -14 34 C-9.05 34 -4.1 34 1 34 C1 32.35 1 30.7 1 29 C5.62 29 10.24 29 15 29 C15 27.68 15 26.36 15 25 C16.65 25 18.3 25 20 25 C20 27.97 20 30.94 20 34 C18.35 34 16.7 34 15 34 C15 35.32 15 36.64 15 38 C17.97 38 20.94 38 24 38 C24 32.06 24 26.12 24 20 C22.68 19.67 21.36 19.34 20 19 C19.505 17.02 19.505 17.02 19 15 C17.68 15 16.36 15 15 15 C15 13.35 15 11.7 15 10 C13.35 10 11.7 10 10 10 C10 8.35 10 6.7 10 5 C6.7 5 3.4 5 0 5 Z " fill="#DA9816" transform="translate(57,11)"/>
<path d="M0 0 C3.63 0 7.26 0 11 0 C11 1.32 11 2.64 11 4 C12.65 4 14.3 4 16 4 C16 5.65 16 7.3 16 9 C17.65 9 19.3 9 21 9 C21 10.65 21 12.3 21 14 C22.65 14.33 24.3 14.66 26 15 C25.67 16.32 25.34 17.64 25 19 C23.02 19 21.04 19 19 19 C19 17.68 19 16.36 19 15 C17.68 15 16.36 15 15 15 C15 13.35 15 11.7 15 10 C13.35 10 11.7 10 10 10 C10 8.35 10 6.7 10 5 C6.7 5 3.4 5 0 5 C0 6.65 0 8.3 0 10 C-4.62 10 -9.24 10 -14 10 C-14 11.65 -14 13.3 -14 15 C-18.62 15 -23.24 15 -28 15 C-28 16.32 -28 17.64 -28 19 C-32.95 19 -37.9 19 -43 19 C-43.33 17.68 -43.66 16.36 -44 15 C-43 14 -43 14 -39.83984375 13.90234375 C-37.90818359 13.91974609 -37.90818359 13.91974609 -35.9375 13.9375 C-34.64714844 13.94652344 -33.35679688 13.95554687 -32.02734375 13.96484375 C-31.02832031 13.97644531 -30.02929688 13.98804688 -29 14 C-29 12.35 -29 10.7 -29 9 C-24.38 9 -19.76 9 -15 9 C-15 7.35 -15 5.7 -15 4 C-10.05 4 -5.1 4 0 4 C0 2.68 0 1.36 0 0 Z " fill="#B06211" transform="translate(57,11)"/>
<path d="M0 0 C1.65 0 3.3 0 5 0 C5 6.93 5 13.86 5 21 C3.68 21.33 2.36 21.66 1 22 C0.67 23.32 0.34 24.64 0 26 C-2.97 26 -5.94 26 -9 26 C-9 27.32 -9 28.64 -9 30 C-13.62 30 -18.24 30 -23 30 C-23 31.65 -23 33.3 -23 35 C-27.95 35 -32.9 35 -38 35 C-38 33.35 -38 31.7 -38 30 C-33.38 30 -28.76 30 -24 30 C-24 28.35 -24 26.7 -24 25 C-19.38 25 -14.76 25 -10 25 C-10 23.35 -10 21.7 -10 20 C-6.7 20 -3.4 20 0 20 C0 13.4 0 6.8 0 0 Z " fill="#722602" transform="translate(82,30)"/>
<path d="M0 0 C1.65 0 3.3 0 5 0 C5 8.25 5 16.5 5 25 C6.65 25 8.3 25 10 25 C10 26.65 10 28.3 10 30 C11.65 30 13.3 30 15 30 C15 31.32 15 32.64 15 34 C21.27 34 27.54 34 34 34 C34 32.35 34 30.7 34 29 C38.62 29 43.24 29 48 29 C48.33 27.68 48.66 26.36 49 25 C49 26.65 49 28.3 49 30 C44.38 30 39.76 30 35 30 C35 31.65 35 33.3 35 35 C31.7 35 28.4 35 25 35 C25 36.65 25 38.3 25 40 C21.37 40 17.74 40 14 40 C14 38.35 14 36.7 14 35 C12.35 35 10.7 35 9 35 C9 33.35 9 31.7 9 30 C7.35 29.67 5.7 29.34 4 29 C4 28.01 4 27.02 4 26 C2.68 26 1.36 26 0 26 C0 17.42 0 8.84 0 0 Z " fill="#AD6110" transform="translate(9,30)"/>
<path d="M0 0 C4.95 0 9.9 0 15 0 C15 0.33 15 0.66 15 1 C10.38 1 5.76 1 1 1 C1 7.27 1 13.54 1 20 C2.65 20 4.3 20 6 20 C6 21.32 6 22.64 6 24 C7.32 24 8.64 24 10 24 C10 21.03 10 18.06 10 15 C11.65 15 13.3 15 15 15 C15 16.65 15 18.3 15 20 C16.65 20 18.3 20 20 20 C20 24.62 20 29.24 20 34 C16.7 34 13.4 34 10 34 C10 32.68 10 31.36 10 30 C8.35 30 6.7 30 5 30 C5 28.35 5 26.7 5 25 C3.35 25 1.7 25 0 25 C0 16.75 0 8.5 0 0 Z " fill="#F9D84C" transform="translate(14,30)"/>
<path d="M0 0 C4.62 0 9.24 0 14 0 C14 1.32 14 2.64 14 4 C11.03 4 8.06 4 5 4 C5 5.65 5 7.3 5 9 C0.05 9 -4.9 9 -10 9 C-10 10.65 -10 12.3 -10 14 C-14.62 14 -19.24 14 -24 14 C-24 12.35 -24 10.7 -24 9 C-21.03 9 -18.06 9 -15 9 C-15 7.35 -15 5.7 -15 4 C-10.05 4 -5.1 4 0 4 C0 2.68 0 1.36 0 0 Z " fill="#FDF8B8" transform="translate(53,36)"/>
<path d="M0 0 C1.65 0 3.3 0 5 0 C5 1.32 5 2.64 5 4 C6.32 4 7.64 4 9 4 C9 5.65 9 7.3 9 9 C10.65 9 12.3 9 14 9 C14 10.65 14 12.3 14 14 C12.35 14 10.7 14 9 14 C9 16.97 9 19.94 9 23 C7.68 23 6.36 23 5 23 C5 21.68 5 20.36 5 19 C3.35 19 1.7 19 0 19 C0 12.73 0 6.46 0 0 Z " fill="#FCF361" transform="translate(15,31)"/>
<path d="M0 0 C9.57 0 19.14 0 29 0 C29 0.33 29 0.66 29 1 C24.38 1 19.76 1 15 1 C15 2.65 15 4.3 15 6 C10.38 6 5.76 6 1 6 C1 7.32 1 8.64 1 10 C-3.95 10 -8.9 10 -14 10 C-14.33 8.68 -14.66 7.36 -15 6 C-14 5 -14 5 -10.83984375 4.90234375 C-8.90818359 4.91974609 -8.90818359 4.91974609 -6.9375 4.9375 C-5.64714844 4.94652344 -4.35679688 4.95554687 -3.02734375 4.96484375 C-2.02832031 4.97644531 -1.02929688 4.98804688 0 5 C0 3.35 0 1.7 0 0 Z " fill="#B46913" transform="translate(28,20)"/>
<path d="M0 0 C1.32 0 2.64 0 4 0 C4 5.94 4 11.88 4 18 C1.03 18 -1.94 18 -5 18 C-5 16.68 -5 15.36 -5 14 C-3.35 14 -1.7 14 0 14 C0 11.03 0 8.06 0 5 C-1.65 5 -3.3 5 -5 5 C-5 4.67 -5 4.34 -5 4 C-3.35 4 -1.7 4 0 4 C0 2.68 0 1.36 0 0 Z " fill="#F9DA4F" transform="translate(77,31)"/>
<path d="M0 0 C1.32 0 2.64 0 4 0 C4 2.97 4 5.94 4 9 C5.65 9 7.3 9 9 9 C9 10.65 9 12.3 9 14 C6.03 14 3.06 14 0 14 C0 9.38 0 4.76 0 0 Z " fill="#E7AF15" transform="translate(34,50)"/>
<path d="M0 0 C0.33 1.32 0.66 2.64 1 4 C4.3 4 7.6 4 11 4 C11 5.65 11 7.3 11 9 C12.65 9.33 14.3 9.66 16 10 C15.67 11.32 15.34 12.64 15 14 C13.02 14 11.04 14 9 14 C9 12.68 9 11.36 9 10 C7.68 10 6.36 10 5 10 C5 8.35 5 6.7 5 5 C3.35 5 1.7 5 0 5 C0 3.35 0 1.7 0 0 Z " fill="#B67017" transform="translate(67,16)"/>
<path d="M0 0 C1.93166016 0.01740234 1.93166016 0.01740234 3.90234375 0.03515625 C5.19269531 0.04417969 6.48304687 0.05320312 7.8125 0.0625 C8.81152344 0.07410156 9.81054688 0.08570312 10.83984375 0.09765625 C10.83984375 1.74765625 10.83984375 3.39765625 10.83984375 5.09765625 C6.21984375 5.09765625 1.59984375 5.09765625 -3.16015625 5.09765625 C-3.49015625 3.77765625 -3.82015625 2.45765625 -4.16015625 1.09765625 C-3.16015625 0.09765625 -3.16015625 0.09765625 0 0 Z " fill="#AD600F" transform="translate(17.16015625,24.90234375)"/>
<path d="M0 0 C1.65 0 3.3 0 5 0 C5 4.62 5 9.24 5 14 C3.35 14 1.7 14 0 14 C0 9.38 0 4.76 0 0 Z " fill="#FDF45F" transform="translate(29,50)"/>
<path d="M0 0 C3.3 0 6.6 0 10 0 C10 1.65 10 3.3 10 5 C2.31068715 6.06059488 -5.24506486 6.09928082 -13 6 C-13.33 7.32 -13.66 8.64 -14 10 C-14 8.35 -14 6.7 -14 5 C-9.38 5 -4.76 5 0 5 C0 3.35 0 1.7 0 0 Z " fill="#EFCD46" transform="translate(57,16)"/>
<path d="M0 0 C4.95 0 9.9 0 15 0 C15 0.33 15 0.66 15 1 C10.38 1 5.76 1 1 1 C1 7.27 1 13.54 1 20 C2.32 20 3.64 20 5 20 C5 21.65 5 23.3 5 25 C3.35 25 1.7 25 0 25 C0 16.75 0 8.5 0 0 Z " fill="#D7A12C" transform="translate(14,30)"/>
<path d="M0 0 C4.62 0 9.24 0 14 0 C14 1.32 14 2.64 14 4 C9.38 4 4.76 4 0 4 C0 2.68 0 1.36 0 0 Z " fill="#FEFCDD" transform="translate(53,36)"/>
<path d="M0 0 C1.32 0 2.64 0 4 0 C4 4.62 4 9.24 4 14 C2.68 14 1.36 14 0 14 C0 9.38 0 4.76 0 0 Z " fill="#F9D549" transform="translate(15,36)"/>
<path d="M0 0 C1.65 0 3.3 0 5 0 C5 1.32 5 2.64 5 4 C6.65 4 8.3 4 10 4 C10 5.65 10 7.3 10 9 C8.35 9 6.7 9 5 9 C5 7.68 5 6.36 5 5 C3.35 5 1.7 5 0 5 C0 3.35 0 1.7 0 0 Z " fill="#E9B21A" transform="translate(19,55)"/>
<path d="M0 0 C1.65 0 3.3 0 5 0 C5 1.32 5 2.64 5 4 C6.32 4 7.64 4 9 4 C9 5.65 9 7.3 9 9 C7.35 9 5.7 9 4 9 C4 7.68 4 6.36 4 5 C2.68 5 1.36 5 0 5 C0 3.35 0 1.7 0 0 Z " fill="#FDF8C6" transform="translate(15,31)"/>
<path d="M0 0 C2.97 0 5.94 0 9 0 C9 1.65 9 3.3 9 5 C6.03 5 3.06 5 0 5 C0 3.35 0 1.7 0 0 Z " fill="#FDFBDF" transform="translate(29,45)"/>
<path d="M0 0 C3.3 0 6.6 0 10 0 C10 1.32 10 2.64 10 4 C6.7 4 3.4 4 0 4 C0 2.68 0 1.36 0 0 Z " fill="#FEFCD8" transform="translate(67,31)"/>
<path d="M0 0 C4.29 0 8.58 0 13 0 C13 0.99 13 1.98 13 3 C8.71 3 4.42 3 0 3 C0 2.01 0 1.02 0 0 Z " fill="#FFFDE1" transform="translate(39,41)"/>
<path d="M0 0 C6.27 0 12.54 0 19 0 C19 1.65 19 3.3 19 5 C17.35 5 15.7 5 14 5 C14 3.68 14 2.36 14 1 C9.38 1 4.76 1 0 1 C0 0.67 0 0.34 0 0 Z " fill="#FCF580" transform="translate(53,35)"/>
<path d="M0 0 C2.97 0 5.94 0 9 0 C9 1.32 9 2.64 9 4 C6.03 4 3.06 4 0 4 C0 2.68 0 1.36 0 0 Z " fill="#E9B015" transform="translate(48,55)"/>
<path d="M0 0 C2.97 0 5.94 0 9 0 C9 1.32 9 2.64 9 4 C6.03 4 3.06 4 0 4 C0 2.68 0 1.36 0 0 Z " fill="#F9D447" transform="translate(62,50)"/>
<path d="M0 0 C0.33 0 0.66 0 1 0 C1 4.62 1 9.24 1 14 C-0.65 14 -2.3 14 -4 14 C-4 12.35 -4 10.7 -4 9 C-2.68 9 -1.36 9 0 9 C0 6.03 0 3.06 0 0 Z " fill="#F7D545" transform="translate(33,50)"/>
<path d="M0 0 C1.65 0 3.3 0 5 0 C5.5625 1.9375 5.5625 1.9375 6 4 C5 5 5 5 2.4375 5.0625 C1.2309375 5.0315625 1.2309375 5.0315625 0 5 C0 3.35 0 1.7 0 0 Z " fill="#6D2401" transform="translate(77,25)"/>
<path d="M0 0 C1.65 0 3.3 0 5 0 C5 1.65 5 3.3 5 5 C3.35 5 1.7 5 0 5 C0 3.35 0 1.7 0 0 Z " fill="#E0A415" transform="translate(19,55)"/>
<path d="M0 0 C1.65 0 3.3 0 5 0 C5 1.65 5 3.3 5 5 C3.35 5 1.7 5 0 5 C0 3.35 0 1.7 0 0 Z " fill="#E9B41D" transform="translate(43,45)"/>
<path d="M0 0 C2.97 0 5.94 0 9 0 C9 0.33 9 0.66 9 1 C7.35 1 5.7 1 4 1 C4 2.32 4 3.64 4 5 C2.68 5 1.36 5 0 5 C0 3.35 0 1.7 0 0 Z " fill="#E8B429" transform="translate(58,40)"/>
<path d="M0 0 C1.65 0 3.3 0 5 0 C5 1.65 5 3.3 5 5 C3.35 5 1.7 5 0 5 C0 3.35 0 1.7 0 0 Z " fill="#FAEE5F" transform="translate(53,40)"/>
<path d="M0 0 C1.65 0 3.3 0 5 0 C5 1.65 5 3.3 5 5 C3.35 5 1.7 5 0 5 C0 3.35 0 1.7 0 0 Z " fill="#FEFBCC" transform="translate(24,40)"/>
<path d="M0 0 C1.65 0 3.3 0 5 0 C5 1.65 5 3.3 5 5 C3.35 5 1.7 5 0 5 C0 3.35 0 1.7 0 0 Z " fill="#F8D74C" transform="translate(29,26)"/>
<path d="M0 0 C0.33 1.32 0.66 2.64 1 4 C3.97 4 6.94 4 10 4 C10 4.33 10 4.66 10 5 C7.03 5 4.06 5 1 5 C0.67 6.32 0.34 7.64 0 9 C0 7.68 0 6.36 0 5 C-1.32 4.67 -2.64 4.34 -4 4 C-2.68 4 -1.36 4 0 4 C0 2.68 0 1.36 0 0 Z " fill="#E1B331" transform="translate(71,45)"/>
<path d="M0 0 C1.32 0 2.64 0 4 0 C4 1.65 4 3.3 4 5 C2.35 5 0.7 5 -1 5 C-0.67 3.35 -0.34 1.7 0 0 Z " fill="#FAEF5E" transform="translate(39,45)"/>
</svg>
